<?xml version="1.0" encoding="UTF-8"?> <svg xmlns="http://www.w3.org/2000/svg" xmlns:xlink="http://www.w3.org/1999/xlink" viewBox="0 0 720.4 299.68">
  <defs>
    <linearGradient id="a" y1="149.33" x2="239.02" y2="149.33" gradientUnits="userSpaceOnUse">
      <stop offset="0" stop-color="#1f548a"></stop>
      <stop offset="0.51" stop-color="#1f4572"></stop>
      <stop offset="1" stop-color="#1e3458"></stop>
    </linearGradient>
    <linearGradient id="b" x1="490.21" y1="199.97" x2="490.21" y2="77.71" gradientUnits="userSpaceOnUse">
      <stop offset="0" stop-color="#1f548a"></stop>
      <stop offset="0.36" stop-color="#1f4572"></stop>
      <stop offset="0.74" stop-color="#1e385f"></stop>
      <stop offset="1" stop-color="#1e3458"></stop>
    </linearGradient>
    <linearGradient id="c" x1="431.02" y1="236.3" x2="431.02" y2="211.21" gradientUnits="userSpaceOnUse">
      <stop offset="0" stop-color="#1f548a"></stop>
      <stop offset="0.26" stop-color="#1f5084"></stop>
      <stop offset="0.62" stop-color="#1f4572"></stop>
      <stop offset="1" stop-color="#1e3458"></stop>
    </linearGradient>
    <linearGradient id="d" x1="262.99" y1="235.86" x2="262.99" y2="211.23" xlink:href="#c"></linearGradient>
    <linearGradient id="e" x1="385.65" y1="236.3" x2="385.65" y2="211.21" xlink:href="#c"></linearGradient>
    <linearGradient id="f" x1="303.62" y1="235.87" x2="303.62" y2="211.26" xlink:href="#c"></linearGradient>
    <linearGradient id="g" x1="352.98" y1="250.95" x2="352.98" y2="225.85" xlink:href="#c"></linearGradient>
    <linearGradient id="h" x1="568.36" y1="250.95" x2="568.36" y2="225.85" xlink:href="#c"></linearGradient>
    <linearGradient id="i" x1="662.14" y1="235.87" x2="662.14" y2="211.26" xlink:href="#c"></linearGradient>
    <linearGradient id="j" x1="632.76" y1="236.3" x2="632.76" y2="211.21" xlink:href="#c"></linearGradient>
    <linearGradient id="k" x1="712.71" y1="250.46" x2="712.71" y2="225.91" xlink:href="#c"></linearGradient>
    <linearGradient id="l" x1="485.46" y1="250.95" x2="485.46" y2="225.85" xlink:href="#c"></linearGradient>
    <linearGradient id="m" x1="612.09" y1="250.95" x2="612.09" y2="225.85" xlink:href="#c"></linearGradient>
    <linearGradient id="n" x1="517.47" y1="236.3" x2="517.47" y2="211.21" xlink:href="#c"></linearGradient>
  </defs>

  <title>XSELL-color_version</title>

  <polygon points="239.53 235.88 197.28 235.88 0.51 62.77 43.08 62.77 239.53 235.88" fill="#42a04e"></polygon>
  <polygon points="0 235.88 42.26 235.88 239.03 62.77 196.46 62.77 0 235.88" fill="url(#a)"></polygon>
  <path d="M248.83,67.93c-27.56-32.44-70.44-53.28-118.6-53.28-48,0-90.72,20.68-118.29,52.91C37.79,48.3,70.69,36.75,106.52,36.75c36.06,0,69.15,11.69,95.08,31.18Z" transform="translate(-9.49 -14.65)" fill="#42a04e"></path>
  <path d="M11.94,261c27.56,32.44,70.44,53.29,118.6,53.29,48,0,90.72-20.69,118.29-52.92-25.85,19.27-58.75,30.81-94.58,30.81-36.06,0-69.15-11.69-95.08-31.18Z" transform="translate(-9.49 -14.65)" fill="#42a04e"></path>
  <path d="M362,166c0,25.76-35.2,46.47-110.87,25v-21.7s13,7.8,21.15,10.25,68.52,11.91,71.74-12.09c3.36-25.08-89.33-18.66-93.31-54.3C246.53,75.46,303.82,71,352.87,85.11v20.51s-26.78-16.34-60-11.12c0,0-23.44,1.38-24.18,13.6s25.51,18.07,40.81,21.37S362,140.84,362,166Zm42-22.53h77.24V126.63H404.05V96.3h81.13V79.44H385.39V197.36h18.66v-.19h82.42V180.31H404.05Zm123.22,16.33V79.44H509.89v83.3a34.56,34.56,0,0,0,34.62,34.56l69-.13V180.31H547.75A20.48,20.48,0,0,1,527.27,159.83Zm136.87,20.48a20.48,20.48,0,0,1-20.48-20.48V79.44H626.28v83.3A34.56,34.56,0,0,0,660.9,197.3l69-.13V180.31Z" transform="translate(-9.49 -14.65)" fill="url(#b)"></path>
  <polygon points="443.38 230.51 418.67 211.21 414.63 211.21 414.63 236.3 418.67 236.3 418.67 216.55 443.38 236.3 447.42 236.3 447.42 211.21 443.38 211.21 443.38 230.51" fill="url(#c)"></polygon>
  <polygon points="247.82 214.41 260.52 214.41 260.52 235.86 265.46 235.86 265.46 214.41 278.17 214.41 278.17 211.23 247.82 211.23 247.82 214.41" fill="url(#d)"></polygon>
  <polygon points="396.23 221.12 375.08 221.12 375.08 211.21 370.87 211.21 370.87 236.3 375.08 236.3 375.08 224.54 396.23 224.54 396.23 236.3 400.43 236.3 400.43 211.21 396.23 211.21 396.23 221.12" fill="url(#e)"></polygon>
  <polygon points="294.65 224.63 315.4 224.63 315.4 221.11 294.65 221.11 294.65 214.78 316.21 214.78 316.21 211.26 294.65 211.26 290.76 211.26 290.76 235.83 290.76 235.87 294.65 235.87 294.65 235.83 316.48 235.83 316.48 232.31 294.65 232.31 294.65 224.63" fill="url(#f)"></polygon>
  <path d="M339,231v13.58a6.4,6.4,0,0,0,6.4,6.4h21.49v-4H345.5a1.92,1.92,0,0,1-1.92-1.92V231.14a1.92,1.92,0,0,1,1.92-1.92h21.42v-3.37H344.15A5.12,5.12,0,0,0,339,231Z" transform="translate(-9.49 -14.65)" fill="url(#g)"></path>
  <path d="M579.32,225.85H557.4a5.13,5.13,0,0,0-5.12,5.12v13.58a6.41,6.41,0,0,0,6.4,6.4H578a6.41,6.41,0,0,0,6.4-6.4V231A5.13,5.13,0,0,0,579.32,225.85Zm.56,19.18A1.92,1.92,0,0,1,578,247h-19.2a1.92,1.92,0,0,1-1.92-1.92V231.14a1.92,1.92,0,0,1,1.92-1.92H578a1.92,1.92,0,0,1,1.92,1.92Z" transform="translate(-9.49 -14.65)" fill="url(#h)"></path>
  <polygon points="653.17 224.63 673.92 224.63 673.92 221.11 653.17 221.11 653.17 214.78 674.74 214.78 674.74 211.26 653.17 211.26 649.28 211.26 649.28 235.83 649.28 235.87 653.17 235.87 653.17 235.83 675.01 235.83 675.01 232.31 653.17 232.31 653.17 224.63" fill="url(#i)"></polygon>
  <rect x="630.59" y="211.21" width="4.34" height="25.1" fill="url(#j)"></rect>
  <path d="M723.11,235.73H704.19a2.56,2.56,0,0,1-2.56-2.56v-1.33a2.56,2.56,0,0,1,2.56-2.56h22.29v-3.37H702.31a5.12,5.12,0,0,0-5.12,5.12v2.87a5.12,5.12,0,0,0,5.12,5.12h18.8a2.56,2.56,0,0,1,2.56,2.56v3.09a2.56,2.56,0,0,1-2.56,2.56H698.3v3.23h24.81a5.12,5.12,0,0,0,5.12-5.12v-4.49A5.12,5.12,0,0,0,723.11,235.73Z" transform="translate(-9.49 -14.65)" fill="url(#k)"></path>
  <path d="M496.41,225.85H474.5a5.12,5.12,0,0,0-5.12,5.12v13.58a6.41,6.41,0,0,0,6.4,6.4h19.35a6.4,6.4,0,0,0,6.4-6.4V231A5.12,5.12,0,0,0,496.41,225.85ZM497,245a1.92,1.92,0,0,1-1.92,1.92h-19.2a1.92,1.92,0,0,1-1.92-1.92V231.14a1.92,1.92,0,0,1,1.92-1.92h19.2a1.92,1.92,0,0,1,1.92,1.92Z" transform="translate(-9.49 -14.65)" fill="url(#l)"></path>
  <path d="M622,245a1.92,1.92,0,0,1-1.92,1.92H604.06a1.92,1.92,0,0,1-1.92-1.92V231.14a1.92,1.92,0,0,1,1.92-1.92h22.07v-3.37H602.7a5.12,5.12,0,0,0-5.12,5.12v13.58A6.41,6.41,0,0,0,604,251h16.21a6.4,6.4,0,0,0,6.4-6.4V237.2H622Z" transform="translate(-9.49 -14.65)" fill="url(#m)"></path>
  <polygon points="509.16 211.21 505.04 211.21 505.04 232.25 505.04 236.3 509.16 236.3 529.9 236.3 529.9 232.25 509.16 232.25 509.16 211.21" fill="url(#n)"></polygon>
</svg> 